<svg width="128" height="128" viewBox="0 0 128 128" fill="none" xmlns="http://www.w3.org/2000/svg">
<g clip-path="url(#clip0_61_195)">
<path d="M106.667 0H21.3333C9.55126 0 0 9.55126 0 21.3333V106.667C0 118.449 9.55126 128 21.3333 128H106.667C118.449 128 128 118.449 128 106.667V21.3333C128 9.55126 118.449 0 106.667 0Z" fill="url(#paint0_linear_61_195)"/>
<path d="M35.3425 108C34.2758 108 33.7425 107.467 33.7425 106.4V24.288C33.7425 23.2213 34.2758 22.688 35.3425 22.688H53.4545C54.5212 22.688 55.0545 23.2213 55.0545 24.288V58.208H62.9905L67.2145 42.272L71.0545 23.52C71.1398 23.264 71.3318 23.072 71.6305 22.944C71.9718 22.7733 72.4625 22.688 73.1025 22.688H91.5345C92.6012 22.688 93.1345 23.2213 93.1345 24.288V32.288C93.1345 32.7573 93.0705 33.2267 92.9425 33.696C92.8145 34.1227 92.7078 34.5067 92.6225 34.848L84.8145 53.6L79.3745 63.84L84.9425 73.952L94.3505 95.328C94.5212 95.6267 94.6492 95.9467 94.7345 96.288C94.8198 96.6293 94.8625 97.12 94.8625 97.76V106.4C94.8625 107.467 94.3292 108 93.2625 108H74.1905C73.8918 108 73.5078 107.957 73.0385 107.872C72.6118 107.744 72.3558 107.467 72.2705 107.04L67.5345 86.752L64.0145 75.168H55.0545V106.4C55.0545 107.467 54.5212 108 53.4545 108H35.3425Z" fill="#DCD507"/>
</g>
<defs>
<linearGradient id="paint0_linear_61_195" x1="0" y1="0" x2="128" y2="128" gradientUnits="userSpaceOnUse">
<stop stop-color="#732EDB"/>
<stop offset="1" stop-color="#360089"/>
</linearGradient>
<clipPath id="clip0_61_195">
<rect width="128" height="128" fill="white"/>
</clipPath>
</defs>
</svg>
